PathFileType	4	(X/Y/Z)	C:/Users/beibeiliu/ov580/test_trc\sequence.6_training_dense_right.trc
DataRate	CameraRate	NumFrames	NumMarkers	Units	OrigDataRate	OrigDataStartFrame	OrigNumFrames
120	120	25	19	mm	120	57	84
Frame#	Time	ThumbCMC			ThumbMCP			ThumbIP			ThumbTip			IndexMCP			IndexPIP			IndexTip			MiddleMCP			MiddlePIP			MiddleTip			RingMCP			RingPIP			RingTip			PinkyMCP			PinkyPIP			PinkyTip			BackHand1			BackHand2			BackHand3	
		X0	Y0	Z0	X1	Y1	Z1	X2	Y2	Z2	X3	Y3	Z3	X4	Y4	Z4	X5	Y5	Z5	X6	Y6	Z6	X7	Y7	Z7	X8	Y8	Z8	X9	Y9	Z9	X10	Y10	Z10	X11	Y11	Z11	X12	Y12	Z12	X13	Y13	Z13	X14	Y14	Z14	X15	Y15	Z15	X16	Y16	Z16	X17	Y17	Z17	X18	Y18	Z18	
56	0.466667	152.328	19.2891	101.692	137.297	30.977	74.7936	133.187	34.5225	50.0378	125.95	29.5915	26.87	176.136	-21.218	44.3325	176.078	-21.3824	18.4648	159.792	-21.8689	-8.42019	167.441	-44.2642	48.1525	160.319	-51.8807	19.8486	137.346	-43.2067	-4.88078	150.142	-55.8334	55.1548	136.677	-63.2582	26.0204	114.506	-49.3514	10.0116	128.587	-63.9043	66.1617	109.088	-68.2696	44.9865	91.6758	-50.6351	27.4599	152.074	-44.7365	105.787	151.152	-34.533	132.82	169.312	-15.259	108.548	
57	0.475	156.879	23.3486	102.751	144.436	26.4849	70.232	141.128	27.6803	42.7631	140.705	17.4903	26.1041	204.538	-3.02686	53.7255	209.136	-9.04849	25.105	197.679	-16.7223	-1.7703	205.376	-32.2733	56.6257	207.156	-39.7504	24.6714	187.42	-44.4974	0.500852	193.265	-50.9126	63.2953	190.671	-59.3035	33.6001	168.445	-52.7448	10.262	176.34	-66.7863	69.5815	168.209	-69.9996	45.7318	146.6	-63.6435	21.6179	184.638	-32.6572	111.484	174.375	-27.8279	135.217	186.13	-2.46639	115.032	
58	0.483333	151.822	26.2131	96.2923	136.016	23.1721	68.7672	133.294	22.3483	42.0187	140.736	8.27191	20.4459	206.628	20.5878	51.5935	212.942	21.2667	21.1438	208.987	8.85979	-2.9482	219.424	-2.49376	57.2123	227.469	-14.3905	25.0127	212.217	-23.9013	-3.44363	217.779	-20.6551	61.5048	219.522	-36.9271	33.4005	202.545	-42.4729	11.09	209.628	-45.4986	72.1296	205.795	-56.2843	47.2154	189.796	-62.9127	23.237	199.184	-13.9109	111.896	185.16	-9.30119	138.432	186.251	18.1931	114.06	
59	0.491667	132.984	22.6814	90.974	115.58	13.1317	63.7914	119.115	3.79235	38.1148	123.609	-5.89496	18.9117	178.932	38.9527	39.3319	186.434	35.9614	11.717	188.948	19.422	-13.2676	206.539	21.9662	43.5932	215.82	12.5714	15.5057	209.653	-6.82332	-7.51739	214.632	2.84516	53.2767	220.856	-11.4595	26.5122	208.357	-30.0112	6.84318	215.839	-19.9431	69.344	218.72	-36.4323	47.1677	207.231	-48.8428	25.4233	195.408	11.212	98.6728	181.399	11.9838	130.096	169.19	32.9232	104.958	
60	0.5	106.62	17.191	90.8544	97.7213	-1.56388	68.3752	91.8241	-13.178	44.0179	97.5079	-26.509	22.4891	148.281	33.3051	27.4101	147.875	25.8358	-2.19503	149.768	6.79452	-23.614	173.646	25.9728	34.8949	182.128	15.3995	5.83427	183.198	-17.4364	-14.2778	192.937	9.98885	41.5335	198.253	-6.44589	20.0253	189.475	-32.7836	4.26253	201.098	-9.23175	64.2656	204.12	-26.4285	40.6545	200.806	-49.7427	28.6555	176.078	23.2364	91.2107	165.334	26.0321	120.26	144.83	37.7588	91.8423	
61	0.508333	88.1032	14.9567	91.6656	70.6519	-7.57003	80.0374	65.1873	-25.3475	57.7561	73.212	-40.1167	41.5615	116.115	18.175	28.7365	118.164	3.36302	-0.905241	114.372	-17.2605	-15.9739	148.015	11.3141	31.8234	150.404	-5.4308	1.76911	146.682	-36.6494	-8.46066	161.928	1.461	38.1993	168.087	-17.6503	19.004	159.695	-48.5261	12.23	177.113	-12.6137	57.7175	182.479	-34.151	47.1861	170.668	-62.5696	33.4593	154.418	21.9306	83.9907	147.73	31.9055	112.612	119.582	37.3509	86.864	
62	0.516667	74.8563	24.7878	98.104	56.2484	1.35399	90.4032	44.6193	-19.1649	70.8173	43.864	-36.5145	58.0264	98.6189	7.06059	32.9616	93.2133	-9.62098	10.2853	81.9808	-34.8975	-3.50836	125.927	-3.79088	28.9657	120.415	-25.0146	9.61847	109.681	-59.9183	8.22077	140.669	-14.9657	44.5954	133.757	-40.4731	24.4839	116.889	-69.1797	29.4484	154.425	-26.9552	66.1455	149.079	-52.8258	52.9719	129.014	-74.8943	49.9093	139.46	17.3644	85.574	140.858	32.1887	112.209	111.743	35.1315	85.7528	
63	0.525	75.3279	41.5015	99.8089	49.5723	25.9685	95.2102	30.2323	11.5617	81.3992	22.7039	-11.582	68.8056	87.0445	8.78999	36.8144	68.4847	-3.98202	14.5585	55.031	-30.2316	9.11794	106.633	-10.3193	37.2976	94.0808	-29.7934	19.8309	68.5712	-59.6914	22.1547	117.927	-24.7739	51.3085	103.297	-48.6479	36.9905	77.9592	-65.1901	43.069	126.79	-38.4111	72.7242	113.114	-57.9829	63.0076	87.4854	-75.8362	64.0398	133.453	8.36358	84.0097	139.399	26.3696	112.243	111.795	38.059	85.7889	
64	0.533333	94.4431	59.4724	101.932	59.4551	57.9305	90.8729	38.0126	52.3197	81.1282	24.4857	29.4283	68.2464	87.1848	26.2833	35.8539	63.6342	15.6356	13.5079	41.6189	-0.617655	8.44729	94.9688	-0.946428	35.6625	75.2495	-19.7695	21.2157	43.0218	-29.3026	20.6679	99.3902	-20.778	50.6789	73.5853	-39.5311	36.9437	47.4583	-40.712	40.6823	100.458	-35.8634	72.0841	78.5781	-51.5053	65.3635	51.4921	-58.8209	66.4816	127.88	1.46237	84.4082	142.004	16.3364	110.411	124	37.9371	86.6725	
65	0.541667	114.918	62.0412	97.9714	85.8385	69.2709	88.1731	64.4767	74.1472	72.6788	45.3498	61.1834	60.8515	102.418	30.7428	33.1219	79.5759	25.6765	10.5675	56.5956	23.4468	0.908664	98.7097	-1.36132	31.892	76.5431	-5.85629	16.0652	44.8714	-2.5735	11.0998	93.2095	-14.0727	44.6299	68.5792	-19.9845	30.3426	38.2184	-12.761	29.515	86.0545	-30.2895	67.6845	59.7661	-37.494	60.9533	36.5838	-34.02	55.9526	127.371	-4.06577	86.7396	141.44	5.75434	112.895	137.361	27.1092	84.2456	
66	0.55	134.893	56.1083	95.167	110.524	70.3837	82.9231	92.018	79.8988	60.4992	73.5868	71.6038	47.3671	122.034	24.5455	27.1898	109.545	29.48	4.43687	82.0687	33.5514	-12.0677	113.651	-1.78884	31.5703	92.3929	-3.52076	8.27275	59.8169	6.88545	-1.47103	99.4904	-17.0437	39.5104	75.1822	-15.5331	21.3952	52.679	-1.73582	15.1142	87.1613	-27.3646	63.3726	66.1627	-29.0024	52.6686	37.155	-21.5351	43.1786	128.181	-14.5404	84.3143	139.502	-7.19393	113.227	148.257	16.9453	88.9822	
67	0.558333	151.567	45.9675	96.4658	130.775	61.8764	77.8907	117.174	68.7961	53.9822	102.286	69.1006	36.8613	146.976	11.1299	28.8958	138.1	18.0192	2.22317	116.059	22.6707	-16.497	133.908	-11.9859	27.6932	117.06	-14.4256	5.79991	91.4863	-1.72618	-10.5773	116.521	-25.0286	43.3565	99.3132	-23.3087	18.0606	77.1796	-6.43694	4.6094	96.7419	-33.0827	62.1449	77.2648	-31.7862	39.8499	56.0655	-23.1577	28.2689	136.311	-21.0993	90.1374	142.327	-18.3092	120.743	160.678	5.1107	91.2997	
68	0.566667	162.88	36.5049	99.9845	147.177	50.2388	78.1903	140.986	63.1609	50.5526	129.788	58.1044	28.4326	173.735	-1.45064	37.8059	170.724	0.210626	9.06851	157.285	10.2698	-14.6911	159.01	-28.7132	33.676	148.62	-28.5927	8.35667	127.862	-15.5998	-14.9556	139.88	-38.2295	43.8785	130.543	-35.7179	16.25	112.228	-17.4518	-5.14564	118.437	-42.6302	57.6224	106.051	-43.6258	37.6797	87.8928	-31.6557	13.3417	150.66	-28.3996	94.7149	149.089	-24.6983	121.942	170.463	-7.50506	100.38	
69	0.575	169.872	29.8317	100.468	156.458	43.4567	77.2311	153.595	51.6041	47.035	146.996	47.5715	27.6882	201.736	-0.618253	43.39	201.529	0.385552	16.8024	190.894	4.12078	-8.30857	190.351	-29.2324	43.7177	186.558	-31.5729	14.1515	164.29	-25.7923	-11.9804	171.139	-42.4658	50.3841	167.436	-43.0448	21.2396	147.234	-32.7169	-3.78205	150.371	-49.9526	56.0613	137.062	-55.475	36.225	124.885	-45.7848	12.0535	168.71	-34.8782	98.3425	163.98	-22.9625	129.357	184.642	-2.56276	111.412	
70	0.583333	166.882	36.5947	103.804	153.24	41.9093	73.53	149.943	50.4065	45.7994	149.85	41.919	22.7263	215.994	15.9671	48.3182	217.695	20.0422	22.5231	207.854	20.3882	-6.54655	215.218	-13.6579	51.7616	217.924	-12.9047	22.6462	199.516	-16.8573	-5.7762	203.63	-27.3314	54.9099	204.168	-31.9477	26.1287	187.857	-26.2935	-0.528103	187.829	-43.4513	59.0914	180.514	-49.5036	33.3142	172.083	-45.2041	11.8646	191.51	-23.7262	101.788	180.663	-16.7268	128.664	196.42	9.668	114.868	
71	0.591667	153.669	42.3432	99.1693	137.289	42.3609	71.1393	137.686	39.046	41.6737	140.746	32.7149	16.72	207.374	49.876	50.5852	210.605	49.5793	20.7277	204.349	47.6056	-3.32611	223.339	26.6452	49.3675	227.481	23.2311	22.8823	211.746	13.0386	-9.23318	221.432	3.64919	54.0995	223.684	-4.98845	27.433	206.693	-7.04654	-2.23529	212.934	-19.6724	63.3328	214.689	-25.0251	38.4877	204.447	-30.2308	14.7142	206.244	3.01947	106.474	188.69	3.93727	133.212	187.32	33.158	115.345	
72	0.6	132.758	36.9897	97.844	120.096	28.7601	65.3261	119.611	24.2804	38.3828	127.705	15.684	16.5985	179.403	62.3155	46.2588	181.488	65.0064	12.7082	178.747	53.4117	-12.3146	203.972	49.1294	45.1149	211.934	44.0019	15.9383	202.378	29.3878	-10.4675	211.985	30.005	52.5748	216.829	23.8292	21.4455	207.169	5.37735	-2.23279	215.188	6.63448	62.446	220.06	-4.01728	34.5762	215.22	-18.7961	10.9216	198.064	27.3117	101.879	187.094	22.1949	125.561	168.761	48.4421	104.762	
73	0.608333	115.779	26.1615	93.6721	99.5479	11.0127	69.1198	102.143	2.68424	43.1555	111.782	-4.3542	21.6606	149.053	55.6542	38.0421	146.267	55.628	7.92181	148.927	41.2849	-15.7285	176.816	49.5335	38.621	184.722	43.7539	12.011	180.838	21.1751	-13.7441	190.789	34.2559	47.9165	201.842	23.6536	17.8652	192.346	1.69777	-2.3975	203.782	12.1444	60.644	213.266	-2.06195	37.2801	209.522	-19.0109	12.6118	178.432	34.0516	93.9213	169.306	29.7243	124.327	145.617	45.2421	102.508	
74	0.616667	99.1392	15.6542	98.0386	88.1768	-4.37876	74.2924	86.2374	-16.0491	52.3797	97.363	-26.5898	31.447	125.149	36.9248	33.7779	122.905	30.3857	2.95912	127.701	10.475	-15.5278	153.632	34.284	32.91	162.358	22.5594	5.71775	160.983	-2.92497	-12.2871	171.342	23.3536	45.4202	179.799	5.85937	15.089	173.504	-16.3699	2.42055	186.522	6.12187	60.3679	195.766	-11.8756	37.0885	189.698	-32.1441	18.9435	163.503	30.451	90.3003	153.467	31.5366	122.438	128.807	41.1243	95.5522	
75	0.625	84.8223	10.0355	102.935	70.9999	-13.7059	88.044	67.0431	-30.2687	67.4083	74.3088	-46.0682	43.5675	107.051	15.4014	32.8352	103.404	2.03489	7.92012	101.283	-20.9558	-7.98889	133.261	13.7847	35.5937	138.717	-4.58267	6.76965	135.65	-38.144	-4.20087	155.34	2.56851	41.6539	157.504	-14.1283	21.4197	149.055	-44.89	13.5008	168.877	-9.21956	63.9474	176.871	-29.2941	46.5574	167.777	-56.8598	32.4383	149.6	21.0402	89.683	142.114	27.7428	120.248	114.152	35.3407	94.2043	
76	0.633333	77.131	13.1702	109.048	58.5685	-13.1962	93.7597	50.9524	-30.9763	79.2176	49.1221	-49.6436	61.4223	97.4674	2.59648	39.9012	84.886	-12.6309	15.4514	80.7494	-43.7952	3.67456	119.978	-5.44054	36.6214	120.276	-29.1235	14.1978	107.614	-58.2952	9.71544	135.867	-16.5452	47.9992	134.478	-42.7577	26.9458	119.19	-67.8028	27.2952	149.613	-29.0747	66.8929	151.179	-52.7072	52.7623	132.273	-77.8176	44.8359	137.9	9.9812	93.6987	140.924	21.3327	115.957	111.152	30.1535	98.6953	
77	0.641667	78.4478	28.99	106.725	55.0368	8.76292	100.079	37.8722	-5.83554	84.5759	30.7201	-26.972	69.6158	86.5619	5.66505	35.6788	72.6514	-11.322	18.1817	58.8423	-36.7145	11.4013	108.922	-13.9983	37.3858	96.4747	-33.3023	18.7315	76.4552	-61.8312	19.5125	122.104	-32.2683	47.1174	107.031	-49.7169	33.703	83.3922	-68.3241	35.3382	130.637	-45.6594	72.2094	117.578	-69.3042	61.459	90.5301	-84.6475	60.2736	133.846	-0.480836	89.3275	140.866	11.7136	113.688	117.593	27.1703	93.4268	
78	0.65	94.1754	45.983	104.366	62.7727	39.8176	98.1088	38.2847	27.8684	78.5615	30.5057	6.34503	67.804	92.2437	14.1087	38.1111	70.8731	7.88437	16.1111	47.3266	-10.6183	10.8799	103.236	-9.07451	39.379	84.0223	-28.4482	20.4657	52.8437	-40.3882	19.9734	106.005	-31.9676	49.5907	84.0958	-48.7246	36.0871	54.2919	-52.5033	39.0736	106.829	-48.7697	71.2701	89.188	-64.3143	66.1783	60.9077	-69.4883	60.3183	133.619	-4.75547	87.5206	144.658	9.01991	112.311	127.583	26.7332	89.2777	
79	0.658333	114.679	51.5325	98.2307	84.8893	58.9225	88.1385	64.4227	55.4365	75.1635	47.372	39.4173	59.607	105.763	23.0585	29.3464	84.4088	17.9022	9.67776	58.1522	18.3226	2.60413	107.387	-4.04639	34.8443	84.7207	-14.1137	15.6922	46.9772	-13.1619	11.7152	102.065	-23.0659	48.8931	75.983	-32.3409	30.798	44.2984	-26.7035	30.9622	94.1652	-42.5561	70.1757	72.8903	-46.7208	58.8669	42.0505	-48.1467	54.3888	134.017	-10.1201	88.2346	145.883	-1.37739	110.375	140.436	23.159	89.6019	
80	0.666667	139.1	47.4531	95.2399	112.27	63.182	77.7431	94.3024	67.8487	60.499	75.1598	61.7555	43.195	131.535	14.8232	25.7771	115.535	21.1346	2.28011	89.9365	26.6017	-9.607	121.527	-9.43117	30.7595	100.36	-13.0542	8.45815	72.0003	0.403431	-2.98507	110.33	-23.4599	44.0906	88.3465	-24.0743	23.3084	61.109	-9.77879	13.56	95.505	-34.2261	62.7208	70.3236	-36.9653	49.5939	44.9395	-26.5249	37.9947	137.432	-16.2641	87.8171	145.728	-11.8713	113.703	154.027	11.8837	90.8841	
